<svg width="416" height="416" viewBox="0 0 416 416" fill="none" xmlns="http://www.w3.org/2000/svg">
<path d="M151.273 113.455C151.266 139.929 158.207 165.941 171.403 188.892C184.598 211.843 203.586 230.929 226.468 244.243C249.351 257.557 275.327 264.633 301.8 264.763C328.274 264.894 354.318 258.074 377.331 244.986C368.236 340.931 287.418 416 189.091 416C84.656 416 0 331.344 0 226.909C0 128.582 75.0691 47.7644 171.014 38.6691C158.034 61.4534 151.229 87.2324 151.273 113.455ZM37.8182 226.909C37.8182 267.029 53.7558 305.506 82.1249 333.875C110.494 362.244 148.971 378.182 189.091 378.182C215.818 378.18 242.069 371.103 265.175 357.668C288.281 344.234 307.418 324.922 320.641 301.695C314.666 302.262 308.615 302.545 302.545 302.545C198.111 302.545 113.455 217.889 113.455 113.455C113.455 107.385 113.738 101.353 114.305 95.3586C91.0784 108.582 71.7662 127.719 58.3318 150.825C44.8974 173.931 37.8198 200.182 37.8182 226.909ZM305.647 43.3207L321.455 47.2727V66.1818L305.647 70.1338C298.998 71.7965 292.926 75.2346 288.081 80.0805C283.235 84.9265 279.797 90.9981 278.134 97.6465L274.182 113.455H255.273L251.321 97.6465C249.658 90.9981 246.22 84.9265 241.374 80.0805C236.528 75.2346 230.456 71.7965 223.808 70.1338L208 66.1818V47.2727L223.808 43.3207C230.453 41.655 236.521 38.2156 241.363 33.3699C246.205 28.5241 249.641 22.4541 251.302 15.808L255.273 0H274.182L278.134 15.808C279.797 22.4564 283.235 28.5281 288.081 33.374C292.926 38.2199 298.998 41.658 305.647 43.3207ZM400.192 137.866L416 141.818V160.727L400.192 164.679C393.544 166.342 387.472 169.78 382.626 174.626C377.78 179.472 374.342 185.544 372.679 192.192L368.727 208H349.818L345.866 192.192C344.203 185.544 340.765 179.472 335.919 174.626C331.073 169.78 325.002 166.342 318.353 164.679L302.545 160.727V141.818L318.353 137.866C325.002 136.203 331.073 132.765 335.919 127.919C340.765 123.074 344.203 117.002 345.866 110.353L349.818 94.5455H368.727L372.679 110.353C374.342 117.002 377.78 123.074 382.626 127.919C387.472 132.765 393.544 136.203 400.192 137.866Z" fill="white"/>
</svg>
